# ProBuilder 5.0.6
# https://unity3d.com/unity/features/worldbuilding/probuilder
# 11/12/2022 12:46:56

mtllib ./ladrillo3.mtl
o ladrillo3

g PolyShape (1)
v 0.9999999 9.100611E-07 -3.489052E-08
v 0.9999999 0.1000009 0.09999996
v 0.9999999 0.1000009 0.9
v 1 9.100612E-07 1
v 1.000001 -0.7999991 1
v 1.000001 -0.8999991 0.9
v 1.000001 -0.8999991 0.09999996
v 1.000001 -0.7999991 -3.489052E-08
v 7.126908E-07 -0.8292894 0.8707107
v 5.237339E-08 -0.02928932 0.9292893
v 6.710636E-07 -0.7707106 0.9292893
v 7.785038E-07 -0.8292894 0.1292893
v 7.228414E-07 -0.7707106 0.07071067
v -2.179655E-08 -0.02928932 0.07071068
v -4.972902E-08 0.02928932 0.1292893
v 3.197419E-08 0.02928934 0.8707107
v 0.1000001 9.100619E-08 1
v 0.1000008 -0.8 1
v 0.1000008 -0.8999999 0.9
v 0.1000009 -0.8999999 0.09999999
v 0.1000008 -0.8 -3.489052E-09
v 0.0999999 9.100604E-08 -3.489052E-09
v 0.09999992 0.1000001 0.09999999
v 0.09999992 0.1000001 0.9

vt 4.367238E-14 -6.16959E-14
vt 0.9999999 1
vt 0.9999999 9
vt -1.005158E-13 10
vt -8 10
vt -9 9
vt -9 1
vt -8 -1.624822E-14
vt 8.292893 8.707107
vt 0.2928932 9.292893
vt 7.707107 9.292893
vt 8.292893 1.292893
vt 7.707107 0.7071067
vt 0.2928932 0.7071068
vt -0.2928932 1.292893
vt -0.2928934 8.707107
vt 7.559613E-08 -1.000001
vt -8 -1.000001
vt 7.559613E-07 -10
vt -7.999999 -10
vt 1.414214 -1
vt 6.743495E-08 -0.9999992
vt 1.414214 -10
vt 6.743496E-07 -9.999999
vt 9 -0.9999992
vt 0.9999999 -1
vt 9 -9.999999
vt 0.9999996 -10
vt 7.071068 -1.000001
vt 5.656854 -1.000001
vt 7.071067 -10
vt 5.656853 -10
vt -1.414214 -1
vt -1.414214 -10
vt 8 -1.000001
vt 7.999999 -10
vt -0.9999999 -1
vt -9 -1
vt -0.9999996 -10
vt -9 -10
vt -5.656855 -1
vt -7.071068 -1.000001
vt -5.656854 -10
vt -7.071068 -10
vt -0.2928932 -5.365252
vt -7.707107 -5.365252
vt 7.559613E-08 -6.589997
vt -8 -6.589997
vt 1.121321 -6.940218
vt 0.292893 -6.940218
vt 1.414214 -8.164964
vt 0 -8.164963
vt 8.707108 -4.787904
vt 1.292894 -4.787905
vt 9.000001 -6.012649
vt 1.000001 -6.01265
vt 6.778176 -2.857737
vt 5.949749 -2.857737
vt 7.07107 -4.082482
vt 5.656856 -4.082482
vt -0.2928933 0.4082488
vt -1.12132 0.4082485
vt -2.878321E-08 -0.8164957
vt -1.414214 -0.8164966
vt 7.707107 0.4082471
vt 0.2928933 0.4082486
vt 8 -0.8164979
vt -1.292893 -0.1691018
vt -8.707107 -0.1691028
vt -0.9999999 -1.393847
vt -9 -1.393847
vt -5.949749 -3.674236
vt -6.778177 -3.674236
vt -5.656857 -4.89898
vt -7.07107 -4.898981

vn 0.1 1.072884E-07 -1.192093E-07
vn -0.1 -8.97839E-08 -1.255324E-09
vn 0 0 0.1
vn 6.649836E-08 -0.07071068 0.07071068
vn 9.404288E-08 -0.1 1.263187E-15
vn 6.415686E-08 -0.07071068 -0.07071068
vn -6.681817E-08 0.07071067 -0.07071068
vn -3.489052E-09 -3.743347E-15 -0.1
vn -9.006924E-08 0.1 0
vn -6.368857E-08 0.07071068 0.07071068
vn -0.05773499 -4.817783E-08 0.08164968
vn -0.05773496 -0.05773509 0.05773504
vn -0.05773496 -0.08164971 -5.569749E-09
vn -0.05773497 -0.05773507 -0.05773506
vn -0.0577351 0.05773497 -0.05773501
vn -0.05773503 -5.773266E-08 -0.08164966
vn -0.0577351 0.08164962 4.064691E-09
vn -0.05773511 0.05773498 0.057735

usemtl ProBuilderDefault
f 2/2/1 3/3/1 4/4/1
f 2/2/1 4/4/1 8/8/1
f 1/1/1 2/2/1 8/8/1
f 6/6/1 8/8/1 4/4/1
f 6/6/1 7/7/1 8/8/1
f 6/6/1 4/4/1 5/5/1
f 11/11/2 10/10/2 9/9/2
f 13/13/2 12/12/2 9/9/2
f 10/10/2 13/13/2 9/9/2
f 13/13/2 15/15/2 14/14/2
f 13/13/2 10/10/2 15/15/2
f 10/10/2 16/16/2 15/15/2
f 18/18/3 5/20/3 4/19/3
f 4/19/3 17/17/3 18/18/3
f 19/22/4 6/24/4 5/23/4
f 5/23/4 18/21/4 19/22/4
f 20/26/5 7/28/5 6/27/5
f 6/27/5 19/25/5 20/26/5
f 21/30/6 8/32/6 7/31/6
f 7/31/6 20/29/6 21/30/6
f 23/33/7 2/34/7 1/24/7
f 1/24/7 22/22/7 23/33/7
f 22/22/8 1/24/8 8/36/8
f 8/36/8 21/35/8 22/22/8
f 24/38/9 3/40/9 2/39/9
f 2/39/9 23/37/9 24/38/9
f 17/42/10 4/44/10 3/43/10
f 3/43/10 24/41/10 17/42/10
f 17/47/11 10/45/11 11/46/11
f 11/46/11 18/48/11 17/47/11
f 18/51/12 11/49/12 9/50/12
f 9/50/12 19/52/12 18/51/12
f 19/55/13 9/53/13 12/54/13
f 12/54/13 20/56/13 19/55/13
f 20/59/14 12/57/14 13/58/14
f 13/58/14 21/60/14 20/59/14
f 22/63/15 14/61/15 15/62/15
f 15/62/15 23/64/15 22/63/15
f 21/67/16 13/65/16 14/66/16
f 14/66/16 22/63/16 21/67/16
f 23/70/17 15/68/17 16/69/17
f 16/69/17 24/71/17 23/70/17
f 24/74/18 16/72/18 10/73/18
f 10/73/18 17/75/18 24/74/18

